<svg width="200" height="200" viewBox="0 0 200 200" fill="none" xmlns="http://www.w3.org/2000/svg">
<path d="M0 100C0 44.7715 44.7715 0 100 0V0C155.228 0 200 44.7715 200 100V160C200 182.091 182.091 200 160 200H100C44.7715 200 0 155.228 0 100V100Z" fill="#13293D"/>
<path d="M91.856 53.704H116.432C121.211 53.96 125.179 54.3867 128.336 54.984C134.309 56.1787 138.533 58.44 141.008 61.768C141.947 62.9627 142.672 64.456 143.184 66.248C143.696 68.04 143.781 69.96 143.44 72.008C142.245 81.3093 136.784 89.3307 127.056 96.072C124.325 98.0347 121.04 99.8693 117.2 101.576L115.536 102.344L116.176 103.368C117.541 105.501 119.547 109.853 122.192 116.424C125.008 123.677 127.312 128.413 129.104 130.632C130.299 132.339 131.707 133.363 133.328 133.704C135.717 134.131 138.149 133.491 140.624 131.784C141.819 130.931 142.971 129.821 144.08 128.456C145.531 126.835 146.896 125.64 148.176 124.872C150.48 123.592 152.571 122.952 154.448 122.952C155.301 122.952 155.856 123.037 156.112 123.208C158.16 124.403 156.965 127.176 152.528 131.528C145.701 138.355 137.936 142.365 129.232 143.56C127.867 143.731 126.544 143.816 125.264 143.816C123.472 143.816 121.979 143.517 120.784 142.92C118.224 141.725 115.963 139.464 114 136.136C112.379 133.491 110.501 129.309 108.368 123.592C105.893 117.192 103.845 112.84 102.224 110.536C100.859 108.488 99.664 107.208 98.64 106.696C97.36 106.269 96.464 106.056 95.952 106.056C95.0987 106.056 94.4587 105.629 94.032 104.776C93.6053 103.581 94.2453 102.131 95.952 100.424C97.1467 99.2293 98.5973 98.2053 100.304 97.352C102.011 96.584 103.888 96.1573 105.936 96.072C110.373 95.816 114.427 94.8773 118.096 93.256C123.216 90.7813 126.672 86.8987 128.464 81.608C129.147 79.56 129.488 77.64 129.488 75.848C129.488 74.056 129.189 72.5627 128.592 71.368C127.483 68.9787 125.008 67.144 121.168 65.864C116.475 64.328 109.648 63.56 100.688 63.56C99.152 63.56 98.384 63.6453 98.384 63.816L97.872 67.4C95.3973 88.0507 90.0213 108.744 81.744 129.48C79.5253 135.197 77.9467 138.483 77.008 139.336C76.8373 139.507 76.624 139.72 76.368 139.976C73.552 142.536 70.608 143.816 67.536 143.816C66.8533 143.816 66.3413 143.688 66 143.432C65.3173 143.005 64.976 142.451 64.976 141.768C64.976 141.512 65.1893 140.872 65.616 139.848C67.5787 135.155 69.2 131.059 70.48 127.56C76.7093 110.579 80.976 93.768 83.28 77.128C84.56 68.68 85.072 64.2 84.816 63.688C84.56 63.5173 82.8533 63.7307 79.696 64.328C74.9173 65.096 71.4613 66.4187 69.328 68.296C67.9627 69.6613 66.9387 71.4107 66.256 73.544C65.8293 74.6533 65.1893 75.7627 64.336 76.872C61.264 79.5173 58.0213 81.0107 54.608 81.352C53.4987 81.352 52.7733 80.968 52.432 80.2C52.176 79.688 52.2613 78.7067 52.688 77.256C54.3947 72.3067 57.6373 67.9973 62.416 64.328C70.2667 58.184 80.08 54.6427 91.856 53.704Z" fill="white"/>
</svg>
